<?xml version="1.0" encoding="utf-8"?>
<!-- Generator: Adobe Illustrator 26.3.1, SVG Export Plug-In . SVG Version: 6.00 Build 0)  -->
<svg version="1.1" id="图层_1" xmlns="http://www.w3.org/2000/svg" xmlns:xlink="http://www.w3.org/1999/xlink" x="0px" y="0px"
	 viewBox="0 0 500 500" style="enable-background:new 0 0 500 500;" xml:space="preserve">
<style type="text/css">
	.st0{fill:#FF8E66;}
	.st1{fill:#C65C3C;}
	.st2{fill:none;stroke:#534741;stroke-width:25;stroke-miterlimit:10;}
</style>
<g>
	<g>
		<g>
			<path class="st0" d="M473.59,265.15c-8.78-3.63-9.18-11.07-8.29-16.11l20.97-69.99l-70.69,13.92
				c-2.45,0.31-9.23-0.19-12.69-13.31l-6.27-23.83l-49.01,53.31c0,0-31.76,32.63-21.82-17.18l21.3-106.41l-39.35,18.52
				c-2.25,0.83-10,1.88-20.29-16.56l-35.96-64.5l-35.96,64.5c-10.29,18.43-18.05,17.39-20.29,16.56L155.9,85.57l21.27,106.41
				c9.95,49.8-21.82,17.18-21.82,17.18l-49.01-53.31l-6.27,23.83c-3.46,13.12-10.2,13.62-12.69,13.31L16.7,179.06l20.97,69.99
				c0.9,5.03,0.5,12.48-8.29,16.11l-22.1,9.19c0,0,81.11,61.35,107.68,82.29c5.19,4.04,17.71,15.9,13.39,28.64l-9.47,27.83
				l110.98-15.97c5.72-0.47,37.6-0.47,43.28,0l110.98,15.97l-9.47-27.83c-4.34-12.73,8.21-24.6,13.39-28.64
				c26.56-20.94,107.67-82.29,107.67-82.29L473.59,265.15z"/>
			<path class="st1" d="M453,279.88c-14.36,1.06-28.74,1.76-43.13,2.34c-23.73,0.93-47.49,1.44-71.24,1.74
				c10.28-7.22,20.6-14.41,30.96-21.56l59.13-40.7l29.38-20.61c9.62-7.06,19.61-13.81,28.18-22.03
				c-9.01,7.75-19.36,13.94-29.36,20.48l-30.52,19.01l-58.66,35.85c3.86-14.93,7.75-29.85,11.87-44.73l7.8-27.13
				c2.8-8.99,5.4-18.05,9.24-26.71c-4.47,8.4-7.73,17.32-11.17,26.12l-9.77,26.63c-6.14,17.24-12.04,34.54-17.83,51.9
				c-18.1,11.12-36.14,22.32-54.02,33.87c-10.09,6.54-20.15,13.18-30.04,20.15c-4.87,3.44-9.68,6.96-14.44,10.69L256.45,219
				c11.05-23.71,24.67-46.36,39.69-68.2c15.61-22.6,32.64-44.41,50.98-65.22c-19.37,19.96-37.51,41.04-54.34,63.05
				c-13.35,17.53-25.81,35.77-36.76,54.84l-4.52-162.9L247,203.46c-10.96-19.07-23.41-37.31-36.76-54.84
				c-16.82-22.01-34.96-43.08-54.34-63.05c18.35,20.81,35.37,42.62,50.98,65.22c15.02,21.85,28.64,44.5,39.69,68.2l-2.93,106.19
				c-4.76-3.72-9.58-7.24-14.44-10.69c-9.9-6.97-19.94-13.6-30.04-20.15c-17.87-11.55-35.92-22.74-54.02-33.87
				c-5.79-17.37-11.7-34.66-17.83-51.9l-9.77-26.63c-3.44-8.79-6.7-17.72-11.17-26.12c3.84,8.66,6.44,17.72,9.24,26.71l7.8,27.13
				c4.12,14.87,8.01,29.8,11.87,44.73l-58.66-35.85l-30.53-19.01c-10-6.54-20.35-12.73-29.36-20.48
				c8.57,8.22,18.56,14.97,28.18,22.03l29.38,20.61l59.13,40.7c10.35,7.16,20.68,14.33,30.96,21.56c-23.75-0.3-47.51-0.8-71.24-1.74
				c-14.39-0.57-28.77-1.29-43.13-2.34c-14.32-1.19-28.77-2.12-42.73-5.53c13.8,4.03,28.25,5.61,42.52,7.45
				c14.33,1.69,28.69,3.04,43.06,4.26c27.37,2.29,54.77,4.08,82.22,5.55c5.63,4.01,11.3,7.98,16.88,12.04
				c9.11,6.63,18.15,13.36,26.93,20.25c-15.65,14.35-30.52,29.15-45.88,43.57c-8.56,8.08-17.2,16.1-26.08,23.86
				c-8.92,7.74-17.96,15.38-28.04,21.79c10.45-5.87,19.99-13.08,29.38-20.33c9.36-7.32,18.49-14.9,27.55-22.53
				c16.43-13.8,32.46-28.08,48.96-41.57c3.05,2.47,6.14,4.94,9.03,7.47c3.39,3.03,6.75,6.14,9.29,9.17l-3.8,137.35h24.42
				l-3.79-137.37c2.54-3.03,5.89-6.14,9.29-9.17c2.89-2.53,5.98-4.99,9.03-7.47c16.49,13.48,32.53,27.77,48.96,41.57
				c9.05,7.63,18.18,15.21,27.55,22.53c9.39,7.25,18.93,14.47,29.38,20.33c-10.08-6.4-19.12-14.05-28.04-21.79
				c-8.88-7.77-17.52-15.79-26.08-23.86c-15.36-14.43-30.23-29.22-45.88-43.57c8.78-6.88,17.81-13.61,26.93-20.25
				c5.58-4.05,11.24-8.03,16.88-12.04c27.45-1.47,54.84-3.26,82.22-5.55c14.38-1.21,28.74-2.57,43.06-4.26
				c14.27-1.84,28.71-3.42,42.52-7.45C481.76,277.75,467.31,278.69,453,279.88z"/>
		</g>
	</g>
</g>
<path class="st2" d="M166,358v-56.27c0-4.52,2.04-8.73,5.42-11.22l45.7-33.58c6.16-4.53,13.38-6.94,20.76-6.94h84.53
	c5.9,0,10.69,5.34,10.69,11.92V358"/>
<line class="st2" x1="166" y1="311.25" x2="334" y2="311.25"/>
</svg>
