<?xml version="1.0" encoding="iso-8859-1"?>
<!-- Generator: Adobe Illustrator 23.0.2, SVG Export Plug-In . SVG Version: 6.00 Build 0)  -->
<svg version="1.1" id="&#x56FE;&#x5C42;_1" xmlns="http://www.w3.org/2000/svg" xmlns:xlink="http://www.w3.org/1999/xlink" x="0px"
	 y="0px" viewBox="0 0 500 500" style="enable-background:new 0 0 500 500;" xml:space="preserve">
<g>
	<path style="fill:#A1788F;" d="M404.865,397.547H115.913c-3.165,0-5.755-2.59-5.755-5.755V196.157c0-3.165,2.59-5.755,5.755-5.755
		h288.952c3.165,0,5.755,2.59,5.755,5.755v195.634C410.62,394.957,408.03,397.547,404.865,397.547z"/>
	<g id="&#x6570;&#x636E;&#x677F;_2_">
		<path style="fill:#231D5A;" d="M412.265,194.22H95.895c-0.903,0-1.642-0.739-1.642-1.642v-4.452c0-0.903,0.739-1.642,1.642-1.642
			h316.37c0.903,0,1.642,0.739,1.642,1.642v4.452C413.907,193.482,413.168,194.22,412.265,194.22z"/>
		<path style="fill:#FFFFFF;" d="M399.448,194.22H109.23c-2.293,0-4.168,1.876-4.168,4.168V387.33c0,2.293,1.876,4.168,4.168,4.168
			h290.218c2.293,0,4.168-1.876,4.168-4.168V198.389C403.617,196.096,401.741,194.22,399.448,194.22z"/>
		<path style="fill:#5A78EB;" d="M252.769,222.704H123.52c-0.721,0-1.311-0.59-1.311-1.311v-7.225c0-0.721,0.59-1.311,1.311-1.311
			h129.25c0.721,0,1.311,0.59,1.311,1.311v7.225C254.08,222.115,253.49,222.704,252.769,222.704z"/>
		<path style="fill:#5A78EB;" d="M227.45,316.245H123.52c-0.721,0-1.311-0.59-1.311-1.311v-7.225c0-0.721,0.59-1.311,1.311-1.311
			h103.93c0.721,0,1.311,0.59,1.311,1.311v7.225C228.761,315.655,228.171,316.245,227.45,316.245z"/>
		<path style="fill:#5A78EB;" d="M352.639,245.21H123.52c-0.721,0-1.311-0.59-1.311-1.311v-7.225c0-0.721,0.59-1.311,1.311-1.311
			h229.12c0.721,0,1.311,0.59,1.311,1.311v7.225C353.95,244.621,353.36,245.21,352.639,245.21z"/>
		<path style="fill:#FA6464;" d="M139.246,273.167h-15.963c-0.591,0-1.074-0.483-1.074-1.074V256.13
			c0-0.591,0.483-1.074,1.074-1.074h15.963c0.591,0,1.074,0.483,1.074,1.074v15.963
			C140.319,272.684,139.836,273.167,139.246,273.167z"/>
		<path style="fill:#5A78EB;" d="M139.246,298.838h-15.963c-0.591,0-1.074-0.483-1.074-1.074v-15.963
			c0-0.591,0.483-1.074,1.074-1.074h15.963c0.591,0,1.074,0.483,1.074,1.074v15.963
			C140.319,298.355,139.836,298.838,139.246,298.838z"/>
		<path style="fill:#FDD740;" d="M134.147,352.465h-10.864c-0.591,0-1.074-0.483-1.074-1.074v-10.864
			c0-0.591,0.483-1.074,1.074-1.074h10.864c0.591,0,1.074,0.483,1.074,1.074v10.864C135.22,351.982,134.737,352.465,134.147,352.465
			z"/>
		<path style="fill:#232323;" d="M187.056,369.16H119.22c-0.384,0-0.694-0.31-0.694-0.694s0.31-0.694,0.694-0.694h67.2
			l32.352-37.452h106.166c0.384,0,0.694,0.31,0.694,0.694c0,0.384-0.31,0.694-0.694,0.694h-105.53L187.056,369.16z"/>
		<path style="fill:#232323;" d="M324.938,339.445H222.079c-0.384,0-0.694-0.31-0.694-0.694s0.31-0.694,0.694-0.694h102.859
			c0.384,0,0.694,0.31,0.694,0.694S325.321,339.445,324.938,339.445z"/>
		<path style="fill:#232323;" d="M304.19,346.829h-82.111c-0.384,0-0.694-0.31-0.694-0.694c0-0.384,0.31-0.694,0.694-0.694h82.111
			c0.384,0,0.694,0.31,0.694,0.694C304.884,346.519,304.574,346.829,304.19,346.829z"/>
		<path style="fill:#232323;" d="M239.838,355.62h-17.759c-0.384,0-0.694-0.31-0.694-0.694c0-0.384,0.31-0.694,0.694-0.694h17.759
			c0.384,0,0.694,0.31,0.694,0.694C240.532,355.31,240.221,355.62,239.838,355.62z"/>
		<path style="fill:#232323;" d="M280.278,355.62h-35.517c-0.384,0-0.694-0.31-0.694-0.694c0-0.384,0.31-0.694,0.694-0.694h35.517
			c0.384,0,0.694,0.31,0.694,0.694C280.972,355.31,280.661,355.62,280.278,355.62z"/>
		<path style="fill:#232323;" d="M318.257,355.62h-33.759c-0.384,0-0.694-0.31-0.694-0.694c0-0.384,0.31-0.694,0.694-0.694h33.759
			c0.384,0,0.694,0.31,0.694,0.694C318.951,355.31,318.64,355.62,318.257,355.62z"/>
		<g>
			<g>
				<circle style="fill:#FDD740;" cx="304.02" cy="284.953" r="20.923"/>
				<path style="fill:#232323;" d="M304.02,306.57c-11.92,0-21.617-9.698-21.617-21.618s9.697-21.617,21.617-21.617
					c11.92,0,21.618,9.697,21.618,21.617S315.939,306.57,304.02,306.57z M304.02,264.723c-11.155,0-20.229,9.074-20.229,20.229
					s9.074,20.23,20.229,20.23c11.155,0,20.23-9.075,20.23-20.23S315.174,264.723,304.02,264.723z"/>
			</g>
			<path style="fill:#232323;" d="M304.02,302.691c-9.781,0-17.739-7.958-17.739-17.739c0-5.739,2.799-11.151,7.486-14.477
				c3.008-2.134,6.554-3.262,10.254-3.262c0.384,0,0.694,0.31,0.694,0.694s-0.31,0.694-0.694,0.694c-3.41,0-6.678,1.039-9.45,3.006
				c-4.322,3.066-6.901,8.055-6.901,13.345c0,9.016,7.335,16.351,16.351,16.351c3.951,0,7.765-1.428,10.74-4.022
				c0.288-0.251,0.726-0.222,0.979,0.067c0.252,0.289,0.222,0.727-0.067,0.979C312.444,301.142,308.306,302.691,304.02,302.691z"/>
			<path style="fill:#232323;" d="M304.558,298.222c-3.205,0-6.3-1.159-8.716-3.264c-0.416-0.363-0.46-0.994-0.097-1.411
				c0.363-0.416,0.996-0.458,1.411-0.097c2.051,1.787,4.68,2.771,7.401,2.771c6.214,0,11.27-5.056,11.27-11.27
				c0-3.646-1.778-7.084-4.757-9.197c-1.909-1.355-4.161-2.071-6.513-2.071c-0.553,0-1-0.447-1-1s0.447-1,1-1
				c2.769,0,5.421,0.844,7.671,2.44c3.506,2.487,5.599,6.535,5.599,10.828C317.827,292.269,311.874,298.222,304.558,298.222z"/>
		</g>
		<path style="fill:#232323;" d="M326.71,191.035l-78.611-49.649l-78.606,48.266l-1.453-2.365l79.343-48.719
			c0.452-0.276,1.021-0.272,1.468,0.009l79.342,50.111L326.71,191.035z"/>
		<circle style="fill:#231D5A;" cx="248.109" cy="139.751" r="7.656"/>
		<path style="fill:#232323;" d="M258.548,255.281h-72.382c-0.384,0-0.694-0.31-0.694-0.694c0-0.384,0.31-0.694,0.694-0.694h72.382
			c0.384,0,0.694,0.31,0.694,0.694C259.242,254.971,258.932,255.281,258.548,255.281z"/>
		<path style="fill:#232323;" d="M216.79,261.719h-30.623c-0.384,0-0.694-0.31-0.694-0.694s0.31-0.694,0.694-0.694h30.623
			c0.384,0,0.694,0.31,0.694,0.694S217.173,261.719,216.79,261.719z"/>
		<path style="fill:#232323;" d="M238.365,261.546h-13.92c-0.384,0-0.694-0.31-0.694-0.694c0-0.384,0.31-0.694,0.694-0.694h13.92
			c0.384,0,0.694,0.31,0.694,0.694C239.059,261.236,238.749,261.546,238.365,261.546z"/>
		<path style="fill:#232323;" d="M258.548,268.157h-72.382c-0.384,0-0.694-0.31-0.694-0.694c0-0.384,0.31-0.694,0.694-0.694h72.382
			c0.384,0,0.694,0.31,0.694,0.694C259.242,267.847,258.932,268.157,258.548,268.157z"/>
		<path style="fill:#232323;" d="M234.885,274.595h-48.718c-0.384,0-0.694-0.31-0.694-0.694s0.31-0.694,0.694-0.694h48.718
			c0.384,0,0.694,0.31,0.694,0.694S235.269,274.595,234.885,274.595z"/>
		<path style="fill:#232323;" d="M250.893,274.595h-11.136c-0.384,0-0.694-0.31-0.694-0.694s0.31-0.694,0.694-0.694h11.136
			c0.384,0,0.694,0.31,0.694,0.694S251.276,274.595,250.893,274.595z"/>
		<path style="fill:#232323;" d="M194.518,281.033h-8.351c-0.384,0-0.694-0.31-0.694-0.694c0-0.384,0.31-0.694,0.694-0.694h8.351
			c0.384,0,0.694,0.31,0.694,0.694C195.212,280.723,194.902,281.033,194.518,281.033z"/>
		<path style="fill:#232323;" d="M217.486,281.033h-16.704c-0.384,0-0.694-0.31-0.694-0.694c0-0.384,0.31-0.694,0.694-0.694h16.704
			c0.384,0,0.694,0.31,0.694,0.694C218.179,280.723,217.869,281.033,217.486,281.033z"/>
		<path style="fill:#232323;" d="M253.677,281.033h-32.015c-0.384,0-0.694-0.31-0.694-0.694c0-0.384,0.31-0.694,0.694-0.694h32.015
			c0.384,0,0.694,0.31,0.694,0.694C254.371,280.723,254.061,281.033,253.677,281.033z"/>
		<path style="fill:#FA6464;" d="M347.588,370.817h-12.435c-0.408,0-0.742-0.334-0.742-0.742v-29.139
			c0-0.408,0.334-0.742,0.742-0.742h12.435c0.408,0,0.742,0.334,0.742,0.742v29.139
			C348.331,370.483,347.997,370.817,347.588,370.817z"/>
		<path style="fill:#FA6464;" d="M368.468,370.817h-12.435c-0.408,0-0.742-0.334-0.742-0.742v-76.466
			c0-0.408,0.334-0.742,0.742-0.742h12.435c0.408,0,0.742,0.334,0.742,0.742v76.466C369.21,370.483,368.876,370.817,368.468,370.817
			z"/>
		<path style="fill:#FA6464;" d="M389.348,370.817h-12.435c-0.408,0-0.742-0.334-0.742-0.742V254.634
			c0-0.408,0.334-0.742,0.742-0.742h12.435c0.408,0,0.742,0.334,0.742,0.742v115.441
			C390.09,370.483,389.756,370.817,389.348,370.817z"/>
	</g>
</g>
</svg>
