<?xml version="1.0" encoding="utf-8"?>
<svg width="1252" height="1252" version="1.1" id="Layer_1" xmlns="http://www.w3.org/2000/svg" xmlns:xlink="http://www.w3.org/1999/xlink"
	 x="0px" y="0px"
	 viewBox="41.380001068115234,56.2400016784668,110.8699951171875,100.31999206542969"  xml:space="preserve">
<style type="text/css">
	.st0{fill:#FFFFFF;}
	.st1{fill:#FFFFFF;}
	.st2{fill:#FFFFFF;}
	.st3{clip-path:url(#SVGID_2_);}
	.st4{fill:#FFFFFF;}
	.st5{fill:#FFFFFF;}
	.st6{fill:#FFFFFF;}
</style>
	<g>
	<path class="st1" d="M141.71,115.52l0.01-0.01l-0.24-0.36c-0.04-0.06-0.07-0.11-0.11-0.17l-16.24-24.74l-21.01,15.65l15.36,23.64
		c0.07,0.1,0.13,0.2,0.2,0.3l0.08,0.13l0.01-0.01c2.38,3.38,6.3,5.59,10.75,5.59c7.26,0,13.15-5.89,13.15-13.15
		C143.66,119.88,142.94,117.53,141.71,115.52z"/>
		<circle class="st2" cx="65.56" cy="122.4" r="13.15"/>
		<g>
		<defs>
			<path id="SVGID_1_" d="M141.71,115.52l0.01-0.01l-0.24-0.36c-0.04-0.06-0.07-0.11-0.11-0.17l-16.24-24.74l-0.01,0.01
				c-2.32-3.76-6.45-6.27-11.19-6.27c-7.26,0-13.15,5.89-13.15,13.15c0,3.37,1.28,6.43,3.36,8.75l-0.01,0.01l15.36,23.64
				c0.07,0.1,0.13,0.2,0.2,0.3l0.08,0.13l0.01-0.01c2.38,3.38,6.3,5.59,10.75,5.59c7.26,0,13.15-5.89,13.15-13.15
				C143.66,119.88,142.94,117.53,141.71,115.52z"/>
		</defs>
			<clipPath id="SVGID_2_">
			<use xlink:href="#SVGID_1_"  style="overflow:visible;"/>
		</clipPath>
			<g class="st3">
				<g>
				<g>
					<path class="st4" d="M127.14,97.15c0-7.26-5.89-13.15-13.15-13.15s-13.15,5.89-13.15,13.15c0,2.67,0.8,5.15,2.17,7.22
						c0,0,0,0,0,0l-0.01,0l-9.98-14.11H93C90.68,86.51,86.55,84,81.81,84s-8.87,2.51-11.18,6.26h-0.01l-15.9,24.78
						c2.36-3.49,6.36-5.79,10.9-5.79c4.77,0,8.94,2.55,11.24,6.36l0.02,0l10.39,14.59h0.02c2.39,3.24,6.23,5.36,10.57,5.36
						c4.34,0,8.18-2.11,10.57-5.36h0.02l0.11-0.17c0.27-0.38,0.52-0.77,0.76-1.18l15.57-24.33c0,0,0,0,0,0
						C126.3,102.42,127.14,99.88,127.14,97.15z M104,105.69c-0.01-0.02-0.03-0.03-0.05-0.05C103.97,105.65,103.98,105.67,104,105.69
						z M104.97,106.7c0.08,0.07,0.16,0.14,0.23,0.21C105.13,106.85,105.05,106.78,104.97,106.7z M106.14,107.68
						c0.09,0.06,0.17,0.13,0.26,0.19C106.31,107.81,106.23,107.75,106.14,107.68z M107.63,108.66c0.01,0,0.02,0.01,0.03,0.02
						C107.65,108.67,107.64,108.66,107.63,108.66z M109.03,109.32c0.11,0.04,0.22,0.08,0.34,0.12
						C109.25,109.4,109.14,109.37,109.03,109.32z M110.44,109.8c0.16,0.04,0.31,0.08,0.47,0.12
						C110.76,109.88,110.6,109.84,110.44,109.8z M111.98,110.13c0.15,0.02,0.3,0.05,0.46,0.07
						C112.28,110.18,112.13,110.15,111.98,110.13z M122.63,107.04c0.12-0.1,0.23-0.21,0.35-0.31
						C122.87,106.83,122.75,106.93,122.63,107.04z M115.52,110.2c0.16-0.02,0.31-0.05,0.46-0.07
						C115.83,110.15,115.68,110.18,115.52,110.2z M117.01,109.93c0.17-0.04,0.33-0.08,0.5-0.13
						C117.35,109.85,117.18,109.89,117.01,109.93z M118.5,109.48c0.14-0.05,0.28-0.1,0.42-0.15
						C118.78,109.39,118.64,109.43,118.5,109.48z M120.24,108.72C120.24,108.72,120.24,108.72,120.24,108.72
						C120.24,108.72,120.24,108.72,120.24,108.72z M121.48,107.94c0.11-0.08,0.22-0.16,0.33-0.24
						C121.7,107.78,121.6,107.86,121.48,107.94z M123.71,105.97c0.09-0.1,0.19-0.2,0.28-0.31
						C123.9,105.77,123.81,105.87,123.71,105.97z"/>
					<path class="st4" d="M54.4,115.56c0.1-0.16,0.19-0.32,0.29-0.48l-0.31,0.48L54.4,115.56z"/>
				</g>
			</g>
		</g>
	</g>
		<circle class="st5" cx="113.96" cy="97.17" r="13.18"/>
		<g>
		<path class="st6" d="M113.93,110.3c-4.59,0-8.63-2.36-10.98-5.93l-0.01,0l-9.98-14.11h-0.01C90.63,86.51,86.49,84,81.76,84
			c-4.73,0-8.87,2.51-11.18,6.26h-0.01l-15.9,24.78c2.36-3.49,6.36-5.79,10.9-5.79c4.77,0,8.94,2.55,11.24,6.36l0.02,0l10.39,14.59
			h0.02c2.39,3.24,6.23,5.36,10.57,5.36c4.34,0,8.18-2.11,10.57-5.36h0.02l0.11-0.17c0.27-0.38,0.52-0.77,0.76-1.18l15.62-24.33
			C122.51,108.01,118.46,110.3,113.93,110.3z"/>
			<path class="st6" d="M54.33,115.56l0.02,0c0.1-0.16,0.19-0.32,0.29-0.48L54.33,115.56z"/>
			<path class="st6" d="M124.88,104.43"/>
	</g>
</g>
</svg>